<svg id="Layer_1" data-name="Layer 1" xmlns="http://www.w3.org/2000/svg" viewBox="0 0 160.45 39.73"><defs><style>.cls-1{fill:#cf2027;}.cls-2{isolation:isolate;}.cls-3{fill:#231f20;}</style></defs><path class="cls-1" d="M.86,16.44,6.07,16A2.54,2.54,0,0,0,7,17.28a2.74,2.74,0,0,0,1.55.4,2.59,2.59,0,0,0,1.63-.45,1,1,0,0,0,.45-.84.93.93,0,0,0-.59-.87A10.49,10.49,0,0,0,7.75,15,22.79,22.79,0,0,1,4,14.09a4,4,0,0,1-1.79-1.37,3.53,3.53,0,0,1-.73-2.2,3.57,3.57,0,0,1,.79-2.33A4.64,4.64,0,0,1,4.39,6.73a11.53,11.53,0,0,1,3.7-.49,12.78,12.78,0,0,1,3.62.38,4.69,4.69,0,0,1,1.94,1.16A6.08,6.08,0,0,1,15,9.91l-5,.48a1.69,1.69,0,0,0-.64-1A2.61,2.61,0,0,0,7.83,9a2.11,2.11,0,0,0-1.29.31,1,1,0,0,0-.41.77.82.82,0,0,0,.52.76,8.5,8.5,0,0,0,2.24.46,15.61,15.61,0,0,1,3.89.82,4.36,4.36,0,0,1,2,1.51,3.64,3.64,0,0,1,.68,2.15,4.25,4.25,0,0,1-.71,2.3,4.83,4.83,0,0,1-2.26,1.79,10.92,10.92,0,0,1-4.2.66q-3.75,0-5.34-1.07A4.81,4.81,0,0,1,.86,16.44Z" transform="translate(-0.86 -1.35)"/><path class="cls-1" d="M18,6.55h4.9v2A7,7,0,0,1,25,6.77a5.91,5.91,0,0,1,2.6-.53,5.06,5.06,0,0,1,2.6.58,4.32,4.32,0,0,1,1.56,1.73A8,8,0,0,1,34,6.73a5.88,5.88,0,0,1,2.51-.49,4.51,4.51,0,0,1,3.44,1.31,5.84,5.84,0,0,1,1.24,4.1v8.59H35.92v-7.8a2.18,2.18,0,0,0-.36-1.37,1.56,1.56,0,0,0-1.31-.71,1.83,1.83,0,0,0-1.49.67,3.27,3.27,0,0,0-.57,2.15v7.06H26.93V12.7a4.67,4.67,0,0,0-.1-1.22,1.66,1.66,0,0,0-.58-.83,1.57,1.57,0,0,0-1-.32,1.88,1.88,0,0,0-1.49.68,3.47,3.47,0,0,0-.58,2.25v7H18Z" transform="translate(-0.86 -1.35)"/><path class="cls-1" d="M49.09,11l-5-.53a5.55,5.55,0,0,1,.81-2.07,4.59,4.59,0,0,1,1.54-1.31,6.88,6.88,0,0,1,2-.62,16.59,16.59,0,0,1,2.73-.22,21.26,21.26,0,0,1,3.79.27,4.94,4.94,0,0,1,2.39,1.1,4,4,0,0,1,1.05,1.64,5.92,5.92,0,0,1,.39,2v6a7.39,7.39,0,0,0,.12,1.51,6.46,6.46,0,0,0,.54,1.4H54.5a5.7,5.7,0,0,1-.38-.8,6.32,6.32,0,0,1-.18-.87,6.74,6.74,0,0,1-2,1.41,8.52,8.52,0,0,1-3.24.57,5.46,5.46,0,0,1-3.72-1.13,3.63,3.63,0,0,1-1.27-2.8,3.65,3.65,0,0,1,.92-2.56A6.2,6.2,0,0,1,48,12.56c2-.39,3.24-.67,3.82-.83a17,17,0,0,0,1.86-.63,1.83,1.83,0,0,0-.4-1.35,2,2,0,0,0-1.41-.39,3.59,3.59,0,0,0-1.93.42A2.25,2.25,0,0,0,49.09,11Zm4.55,2.76c-.72.25-1.47.48-2.26.68a5.07,5.07,0,0,0-2,.84,1.31,1.31,0,0,0-.44,1,1.35,1.35,0,0,0,.43,1,1.84,1.84,0,0,0,1.27.39,3.18,3.18,0,0,0,1.63-.43,2.54,2.54,0,0,0,1.07-1,3.5,3.5,0,0,0,.32-1.6Z" transform="translate(-0.86 -1.35)"/><path class="cls-1" d="M62,6.55h4.91V8.8a5.42,5.42,0,0,1,1.46-2,3.1,3.1,0,0,1,1.86-.55A5.59,5.59,0,0,1,72.74,7L71.12,10.7a4.27,4.27,0,0,0-1.47-.38,1.81,1.81,0,0,0-1.6.85c-.54.8-.81,2.29-.81,4.48v4.59H62Z" transform="translate(-0.86 -1.35)"/><path class="cls-1" d="M81.25,1.35v5.2h2.89v3.84H81.25v4.85a2.62,2.62,0,0,0,.17,1.16,1,1,0,0,0,.9.44A5.87,5.87,0,0,0,84,16.51l.38,3.62a17.3,17.3,0,0,1-3.63.42,6.4,6.4,0,0,1-2.89-.5,3,3,0,0,1-1.37-1.53A8.82,8.82,0,0,1,76,15.21V10.39H74.06V6.55H76V4Z" transform="translate(-0.86 -1.35)"/><path class="cls-1" d="M87.06,1.35h8.68A10.44,10.44,0,0,1,99.88,2a6.82,6.82,0,0,1,2.61,2,8.28,8.28,0,0,1,1.5,3,14,14,0,0,1,.46,3.66,12.7,12.7,0,0,1-.69,4.7,7.83,7.83,0,0,1-1.91,2.79,6.25,6.25,0,0,1-2.63,1.51,13.68,13.68,0,0,1-3.48.51H87.06ZM92.9,5.63V16h1.43a6.06,6.06,0,0,0,2.61-.41,2.76,2.76,0,0,0,1.21-1.41,9,9,0,0,0,.44-3.28c0-2-.33-3.38-1-4.12a4.19,4.19,0,0,0-3.25-1.1Z" transform="translate(-0.86 -1.35)"/><path class="cls-1" d="M112,11l-5-.53a5.55,5.55,0,0,1,.82-2.07,4.49,4.49,0,0,1,1.54-1.31,6.71,6.71,0,0,1,2-.62A16.68,16.68,0,0,1,114,6.24a21.18,21.18,0,0,1,3.79.27,4.9,4.9,0,0,1,2.39,1.1,3.92,3.92,0,0,1,1.06,1.64,6.14,6.14,0,0,1,.38,2v6a7.39,7.39,0,0,0,.12,1.51,7,7,0,0,0,.54,1.4h-4.92a5,5,0,0,1-.39-.8,6.32,6.32,0,0,1-.18-.87,6.74,6.74,0,0,1-2,1.41,8.52,8.52,0,0,1-3.24.57,5.42,5.42,0,0,1-3.71-1.13,3.6,3.6,0,0,1-1.27-2.8,3.65,3.65,0,0,1,.91-2.56,6.23,6.23,0,0,1,3.38-1.5c2-.39,3.24-.67,3.83-.83a17.65,17.65,0,0,0,1.85-.63,1.83,1.83,0,0,0-.4-1.35,2,2,0,0,0-1.4-.39,3.61,3.61,0,0,0-1.94.42A2.25,2.25,0,0,0,112,11Zm4.55,2.76c-.72.25-1.47.48-2.25.68a5.13,5.13,0,0,0-2,.84,1.31,1.31,0,0,0-.44,1,1.32,1.32,0,0,0,.44,1,1.82,1.82,0,0,0,1.27.39,3.23,3.23,0,0,0,1.63-.43,2.6,2.6,0,0,0,1.07-1,3.51,3.51,0,0,0,.31-1.6Z" transform="translate(-0.86 -1.35)"/><path class="cls-1" d="M130.66,1.35v5.2h2.88v3.84h-2.88v4.85a2.66,2.66,0,0,0,.16,1.16,1,1,0,0,0,.91.44,5.88,5.88,0,0,0,1.62-.33l.39,3.62a17.32,17.32,0,0,1-3.64.42,6.35,6.35,0,0,1-2.88-.5,3.09,3.09,0,0,1-1.38-1.53,9.08,9.08,0,0,1-.44-3.31V10.39h-1.94V6.55h1.94V4Z" transform="translate(-0.86 -1.35)"/><path class="cls-1" d="M140.83,11l-5-.53a5.55,5.55,0,0,1,.82-2.07,4.59,4.59,0,0,1,1.54-1.31,6.69,6.69,0,0,1,2-.62,16.59,16.59,0,0,1,2.73-.22,21.33,21.33,0,0,1,3.79.27,4.87,4.87,0,0,1,2.38,1.1,3.92,3.92,0,0,1,1.06,1.64,5.92,5.92,0,0,1,.39,2v6a7.39,7.39,0,0,0,.12,1.51,6.9,6.9,0,0,0,.53,1.4h-4.92a5,5,0,0,1-.39-.8,6.32,6.32,0,0,1-.18-.87,6.74,6.74,0,0,1-2,1.41,8.47,8.47,0,0,1-3.23.57,5.44,5.44,0,0,1-3.72-1.13,3.6,3.6,0,0,1-1.27-2.8,3.65,3.65,0,0,1,.91-2.56,6.23,6.23,0,0,1,3.38-1.5c2-.39,3.25-.67,3.83-.83a18.6,18.6,0,0,0,1.86-.63,1.88,1.88,0,0,0-.4-1.35,2,2,0,0,0-1.41-.39,3.57,3.57,0,0,0-1.93.42A2.15,2.15,0,0,0,140.83,11Zm4.55,2.76c-.73.25-1.48.48-2.26.68a5,5,0,0,0-2,.84,1.27,1.27,0,0,0-.44,1,1.32,1.32,0,0,0,.43,1,1.84,1.84,0,0,0,1.27.39,3.21,3.21,0,0,0,1.63-.43,2.6,2.6,0,0,0,1.07-1,3.5,3.5,0,0,0,.32-1.6Z" transform="translate(-0.86 -1.35)"/><rect class="cls-1" y="23.95" width="150.32" height="0.44"/><g class="cls-2"><g class="cls-2"><path class="cls-1" d="M1.69,40.92V31.65H8.4v1.1H2.92v2.84H8.05v1.08H2.92v3.16H8.61v1.09Z" transform="translate(-0.86 -1.35)"/><path class="cls-1" d="M16.38,40.92V31.65h1.26l4.87,7.28V31.65h1.18v9.27H22.43l-4.87-7.28v7.28Z" transform="translate(-0.86 -1.35)"/><path class="cls-1" d="M34.2,40.92V32.75H31.14v-1.1h7.35v1.1H35.42v8.17Z" transform="translate(-0.86 -1.35)"/><path class="cls-1" d="M45.86,40.92V31.65h6.71v1.1H47.09v2.84h5.13v1.08H47.09v3.16h5.69v1.09Z" transform="translate(-0.86 -1.35)"/><path class="cls-1" d="M60.59,40.92V31.65H64.7a5.38,5.38,0,0,1,1.88.25,2,2,0,0,1,1,.88,2.62,2.62,0,0,1,.39,1.4,2.34,2.34,0,0,1-.64,1.66,3.17,3.17,0,0,1-2,.86,3.16,3.16,0,0,1,.74.47,6.45,6.45,0,0,1,1,1.23l1.62,2.52H67.21L66,39c-.36-.55-.66-1-.89-1.27a2.55,2.55,0,0,0-.62-.62,1.86,1.86,0,0,0-.56-.25,3.81,3.81,0,0,0-.69,0H61.81v4.11Zm1.22-5.18h2.64a3.91,3.91,0,0,0,1.32-.17,1.45,1.45,0,0,0,.72-.56,1.52,1.52,0,0,0,.24-.83,1.39,1.39,0,0,0-.47-1.08,2.27,2.27,0,0,0-1.51-.42H61.81Z" transform="translate(-0.86 -1.35)"/><path class="cls-1" d="M76,40.92V31.65h3.5a8.39,8.39,0,0,1,1.41.09,2.92,2.92,0,0,1,1.14.43,2.21,2.21,0,0,1,.74.9,2.78,2.78,0,0,1,.29,1.26,2.85,2.85,0,0,1-.76,2,3.59,3.59,0,0,1-2.72.82H77.24v3.77Zm1.23-4.86h2.39a2.56,2.56,0,0,0,1.69-.44,1.6,1.6,0,0,0,.5-1.25,1.73,1.73,0,0,0-.29-1,1.43,1.43,0,0,0-.78-.54,5,5,0,0,0-1.14-.08H77.24Z" transform="translate(-0.86 -1.35)"/><path class="cls-1" d="M90.75,40.92V31.65h4.12a5.38,5.38,0,0,1,1.88.25,2.09,2.09,0,0,1,1,.88,2.62,2.62,0,0,1,.39,1.4,2.34,2.34,0,0,1-.64,1.66,3.17,3.17,0,0,1-2,.86,2.79,2.79,0,0,1,.74.47,6.12,6.12,0,0,1,1,1.23l1.62,2.52H97.38L96.16,39c-.36-.55-.66-1-.89-1.27a2.55,2.55,0,0,0-.62-.62,2,2,0,0,0-.56-.25,3.81,3.81,0,0,0-.69,0H92v4.11ZM92,35.74h2.64a3.81,3.81,0,0,0,1.31-.17,1.43,1.43,0,0,0,.73-.56,1.52,1.52,0,0,0,.24-.83,1.37,1.37,0,0,0-.48-1.08,2.22,2.22,0,0,0-1.5-.42H92Z" transform="translate(-0.86 -1.35)"/><path class="cls-1" d="M106.39,40.92V31.65h1.22v9.27Z" transform="translate(-0.86 -1.35)"/><path class="cls-1" d="M115.45,37.94l1.15-.1A2.56,2.56,0,0,0,117,39a2.13,2.13,0,0,0,.93.73,3.59,3.59,0,0,0,1.42.27,3.35,3.35,0,0,0,1.24-.21,1.71,1.71,0,0,0,.8-.57,1.3,1.3,0,0,0,.27-.79,1.21,1.21,0,0,0-.26-.77,1.84,1.84,0,0,0-.83-.54,16.49,16.49,0,0,0-1.65-.46,8.36,8.36,0,0,1-1.79-.57,2.44,2.44,0,0,1-1-.87,2.09,2.09,0,0,1-.33-1.15,2.3,2.3,0,0,1,.4-1.31,2.46,2.46,0,0,1,1.16-.93,4.45,4.45,0,0,1,1.71-.32,4.64,4.64,0,0,1,1.81.33,2.64,2.64,0,0,1,1.21,1,2.74,2.74,0,0,1,.46,1.46l-1.18.09a1.88,1.88,0,0,0-.64-1.33,2.47,2.47,0,0,0-1.61-.45,2.62,2.62,0,0,0-1.63.41,1.22,1.22,0,0,0-.51,1,1.06,1.06,0,0,0,.36.82,5.15,5.15,0,0,0,1.86.66,12.73,12.73,0,0,1,2,.59,2.7,2.7,0,0,1,1.19,1,2.27,2.27,0,0,1,.39,1.31,2.48,2.48,0,0,1-.43,1.4,2.71,2.71,0,0,1-1.21,1,4.3,4.3,0,0,1-1.79.36,5.25,5.25,0,0,1-2.11-.37,2.89,2.89,0,0,1-1.33-1.1A3,3,0,0,1,115.45,37.94Z" transform="translate(-0.86 -1.35)"/><path class="cls-1" d="M130.62,40.92V31.65h6.7v1.1h-5.48v2.84H137v1.08h-5.13v3.16h5.7v1.09Z" transform="translate(-0.86 -1.35)"/><path class="cls-1" d="M144.9,37.94l1.16-.1a2.44,2.44,0,0,0,.38,1.14,2.13,2.13,0,0,0,.93.73,3.64,3.64,0,0,0,1.43.27,3.39,3.39,0,0,0,1.24-.21,1.76,1.76,0,0,0,.8-.57,1.36,1.36,0,0,0,.26-.79,1.21,1.21,0,0,0-.25-.77,1.88,1.88,0,0,0-.84-.54,16.49,16.49,0,0,0-1.65-.46,8.36,8.36,0,0,1-1.79-.57,2.58,2.58,0,0,1-1-.87,2.08,2.08,0,0,1-.32-1.15,2.36,2.36,0,0,1,.39-1.31,2.49,2.49,0,0,1,1.17-.93,4.44,4.44,0,0,1,1.7-.32,4.69,4.69,0,0,1,1.82.33,2.69,2.69,0,0,1,1.21,1,2.82,2.82,0,0,1,.45,1.46l-1.17.09a2,2,0,0,0-.64-1.33,2.52,2.52,0,0,0-1.62-.45A2.6,2.6,0,0,0,147,33a1.22,1.22,0,0,0-.51,1,1.06,1.06,0,0,0,.36.82,5,5,0,0,0,1.85.66,12.41,12.41,0,0,1,2,.59,2.8,2.8,0,0,1,1.2,1,2.34,2.34,0,0,1,.38,1.31,2.55,2.55,0,0,1-.42,1.4,2.74,2.74,0,0,1-1.22,1,4.27,4.27,0,0,1-1.79.36,5.28,5.28,0,0,1-2.11-.37,2.94,2.94,0,0,1-1.33-1.1A3.19,3.19,0,0,1,144.9,37.94Z" transform="translate(-0.86 -1.35)"/></g></g><path class="cls-3" d="M151.56,9V3.41h-2.08V2.66h5v.75h-2.08V9Z" transform="translate(-0.86 -1.35)"/><path class="cls-3" d="M155.3,9V2.66h1.26l1.49,4.46q.19.63.3.93l.33-1,1.51-4.38h1.12V9h-.8V3.69L158.68,9h-.75L156.11,3.6V9Z" transform="translate(-0.86 -1.35)"/></svg>